<?xml version="1.0" encoding="UTF-8" standalone="no"?>
<!-- Created with Inkscape (http://www.inkscape.org/) -->

<svg
   width="188.06027mm"
   height="101.98757mm"
   viewBox="0 0 188.06027 101.98757"
   version="1.1"
   id="svg1080"
   inkscape:version="1.1.1 (1:1.1+202109281949+c3084ef5ed)"
   sodipodi:docname="JustMonika_logo.svg"
   xmlns:inkscape="http://www.inkscape.org/namespaces/inkscape"
   xmlns:sodipodi="http://sodipodi.sourceforge.net/DTD/sodipodi-0.dtd"
   xmlns="http://www.w3.org/2000/svg"
   xmlns:svg="http://www.w3.org/2000/svg">
  <sodipodi:namedview
     id="namedview1082"
     pagecolor="#ffffff"
     bordercolor="#666666"
     borderopacity="1.0"
     inkscape:pageshadow="2"
     inkscape:pageopacity="0.0"
     inkscape:pagecheckerboard="0"
     inkscape:document-units="mm"
     showgrid="false"
     inkscape:zoom="0.39910213"
     inkscape:cx="355.79865"
     inkscape:cy="269.35461"
     inkscape:window-width="1294"
     inkscape:window-height="704"
     inkscape:window-x="72"
     inkscape:window-y="27"
     inkscape:window-maximized="1"
     inkscape:current-layer="layer1" />
  <defs
     id="defs1077" />
  <g
     inkscape:label="Camada 1"
     inkscape:groupmode="layer"
     id="layer1"
     transform="translate(-10.715406,-77.617821)">
    <g
       id="g46825"
       transform="matrix(0.26458333,0,-0.06453634,0.26458333,-121.38023,21.626408)">
      <path
         id="path45713"
         style="font-size:173.333px;line-height:1.25;font-family:DotGothic16;-inkscape-font-specification:DotGothic16;text-align:center;letter-spacing:21.8227px;text-anchor:middle;white-space:pre;fill:#ff0066;stroke-width:1.1456"
         d="m 807.6875,211.62109 v 43.74805 h 15.20898 v -43.74805 z m 329.0039,11.38672 v 32.36133 h 15.209 v -32.36133 z m -313.0039,32.36133 v 18.25195 h -14 v 22.20703 h 12 v 42.72461 h -13.0957 v 8.17579 h 15.20703 v -6.3086 h 13.09765 v -44.5918 h -12 v -22.20703 h 14 v -18.25195 z m 329.0039,0 v 2.35742 h -26.4043 v 13.43946 h 26.4043 v 2.45507 h -14 v 22.20703 h 12 v 50.9004 h 15.209 v -50.9004 h -12 v -22.20703 h 14 v -2.45507 h 39.0762 v -13.43946 h -39.0762 v -2.35742 z m -275.37304,2.35742 v 15.89453 h -14 v 22.20703 h 12 v 44.5918 h 13.30859 v 6.3086 h 15.20899 v -8.17579 h -12.88672 v -42.72461 h -12 v -22.20703 h 14 v -15.89453 z m 78.57812,0 v 15.89453 h -14 v 22.20703 h 12 v 42.72461 h -13.0957 v 8.17579 h -18 v 3.21093 h -36.96484 v -3.21093 h -15.20899 v 5.26367 h 13.09571 v 11.75976 H 925.125 v -11.75976 h 10.77148 v 11.75976 h 15.20899 v -17.02343 h 18 v -50.9004 h -12 v -22.20703 h 14 v -15.89453 z m 66.93942,0 v 11.57422 h -13.3066 v 4.32031 h -14 v 22.20703 h 12 v 10.0586 h 13.3066 v 11.57226 h 65.2715 v 29.26954 h 15.209 v -31.32227 h -13.0976 v -11.57227 h -65.0586 v -8.00586 h -12 v -22.20703 h 14 v -2.45507 h 62.9472 v 2.45507 h -14 v 20.69141 h 15.209 v -20.69141 h 14 v -4.32031 h -13.0976 v -11.57422 z m -279.72652,46.10742 v 36.58594 h 13.30664 v 6.3086 H 771.625 v -8.17579 h -12.88477 v -34.71875 z m 264.41992,23.14649 v 19.74805 h 15.6309 v -19.74805 z m -269.11328,19.74805 v 5.26367 h 13.09765 v 11.75976 h 41.40039 v -11.75976 h 12.88477 v -5.26367 H 790.5918 v 3.21093 H 753.625 v -3.21093 z m 251.11328,0 v 5.26367 h 13.3066 v 11.75976 h 67.3829 v -11.75976 h 13.0976 v -5.26367 h -15.209 v 3.21093 h -62.9472 v -3.21093 z m 143.1621,0 v 5.26367 h 12.8848 v 11.75976 h 41.4004 v -13.8125 h -39.0762 v -3.21093 z m -463.79296,98.2246 v 16.875 h 6 v 42.21876 h -18 v 35.6582 h 12 v 35.16797 h -10 v 22.21289 h 15.63086 v -22.21289 h 10 v -35.16797 h 10.77343 v 11.08789 h 12.88477 v 24.08008 h -10 v 10.45312 h 15.41992 v -10.45312 h 10 v -24.08008 h 13.09766 v -11.08789 h 10.77148 v 35.16797 h -10 v 22.21289 h 15.20899 v -22.21289 h 10 v -35.16797 h -12 v -35.6582 h 18 v -42.21876 h -6 v -16.875 h -15.20899 v 16.875 h 6 v 6.08399 h -13.0957 v 34.7207 h -13.0957 v 1.41407 h -10.77344 v -1.41407 h -13.0957 v -34.7207 H 690.5293 v -6.08399 h -6 v -16.875 z m 391.70896,11.38672 v 5.48828 h 6 v 19.71094 h 15.4199 v -19.71094 h -6 v -5.48828 z m 53.1309,0 v 5.48828 h 6 v 42.21876 h 15.6308 v -42.21876 h -6 v -5.48828 z m -280.22463,34.71875 v 11.57422 h -13.09765 v 1.41407 h -18 v 9.97265 h -13.30664 v 25.68555 h 12 v 34.04687 h 13.30664 v 1.1211 h -10 v 10.45312 h 13.09765 v 11.75977 h 41.40039 v -11.75977 h 12.88477 v -10.45312 h 10 v -1.1211 h 13.09765 v -34.04687 h -12 v -25.68555 h -13.09765 v -9.97265 h 18 v -1.41407 h -12.88477 v -11.57422 z m 105.80469,0 v 12.98829 h -18 v 35.6582 h 12 v 35.16797 h -10 v 22.21289 h 15.63086 v -22.21289 h 10 v -35.16797 h -12 v -23.63281 h 12.88672 v -11.57422 h 36.96484 v 11.57422 h 13.09572 v 23.63281 h 12 v 35.16797 h -10 v 22.21289 h 15.209 v -22.21289 h 10 v -35.16797 h -12 v -25.68555 h -13.0957 v -9.97265 h 18 v -1.41407 h -12.8848 v -11.57422 h -41.40234 v 11.57422 h -10.77344 v -11.57422 z m 127.28904,0 v 12.98829 h 15.4199 v -12.98829 z m 131.709,0 v 11.57422 h -13.0957 v 1.41407 h -18 v 9.97265 h -26.1934 v 11.57227 h -12.8847 v 11.57422 h -10.7735 v -33.11914 h -15.6308 v 35.6582 h 12 v 35.16797 h -10 v 22.21289 h 15.6308 v -22.21289 h 10 v -24.08008 h 10.7735 v 11.38476 h 12.8847 v 11.57422 h 26.1934 v 1.1211 h -10 v 10.45312 h 13.0957 v 11.75977 h 15.209 v -13.81446 h -13.0957 v -8.39843 h 10 v -2.98828 h -12.8848 V 560.3125 h -26.1933 v -11.57422 h -13.0957 v -9.0332 h -12 v -0.48633 h 13.0957 v -11.57422 h 26.1933 v -11.57226 h 12.8848 v -11.57422 h 13.0957 v -0.45117 h 18 v -12.98829 z m 66.9395,0 v 11.57422 h -13.3067 v 1.41407 h -18 v 23.59765 h 15.6309 v -23.14648 h 49.8496 v 32.66797 h -52.1738 v 2.53906 h 12 v 9.0332 h -13.3067 v 26.13477 h -10 v 10.45312 h 13.3067 v 11.75977 h 41.4023 v -11.75977 h 23.8691 v 11.75977 h 15.209 v -13.81446 h -13.0976 v -8.39843 h 10 v -35.16797 h -12 v -35.6582 h 18 v -1.41407 h -12.8848 v -11.57422 z m -566.74418,12.98829 h 10.77344 v 35.6582 h -10.77344 z m 350.09568,0 v 35.6582 h 12 v 35.16797 h -10 v 22.21289 h 15.4199 v -22.21289 h 10 v -35.16797 h -12 v -35.6582 z m -376.0781,0.45117 h 10.77343 v 35.20703 H 672.5293 Z m 52.17578,0 h 10.77148 v 35.20703 h -10.77148 z m 92.91992,0 h 36.9668 v 11.57422 h 13.0957 v 23.63281 h 12 v 32.17969 h -13.0957 v 2.98828 h -10 v 8.39843 H 819.625 v -8.39843 h 10 v -2.98828 h -12.88477 v -32.17969 h -12 V 516.07227 H 817.625 Z m -107.11328,35.20703 h 10.77344 v 9.0332 h -10.77344 z m 551.06838,11.08789 h 49.8496 v 21.0918 h -13.0957 v 2.98828 h -10 v 8.39843 h -36.7539 v -8.39843 h 10 z"
         sodipodi:nodetypes="ccccccccccccccccccccccccccccccccccccccccccccccccccccccccccccccccccccccccccccccccccccccccccccccccccccccccccccccccccccccccccccccccccccccccccccccccccccccccccccccccccccccccccccccccccccccccccccccccccccccccccccccccccccccccccccccccccccccccccccccccccccccccccccccccccccccccccccccccccccccccccccccccccccccccccccccccccccccccccccccccccccccccccccccccccccccccccccccccccccccccccccccccccccccccccccccccccccccccccccccccccccccccccccccccccccccccccccccccccccccccccccccccccccccccccccccccccccccccccccccccccccccccc" />
      <path
         id="path45751"
         style="font-size:173.333px;line-height:1.25;font-family:DotGothic16;-inkscape-font-specification:DotGothic16;text-align:center;letter-spacing:21.8227px;text-anchor:middle;white-space:pre;fill:#00aad4;stroke-width:1.1456"
         d="m 793.6875,211.62109 v 43.74805 h 15.20898 v -43.74805 z m 329.0039,11.38672 v 32.36133 h 15.209 v -32.36133 z m -313.0039,32.36133 v 18.25195 h -14 v 22.20703 h 12 v 42.72461 h -13.0957 v 8.17579 h 15.20703 v -6.3086 h 13.09765 v -44.5918 h -12 v -22.20703 h 14 v -18.25195 z m 329.0039,0 v 2.35742 h -26.4043 v 13.43946 h 26.4043 v 2.45507 h -14 v 22.20703 h 12 v 50.9004 h 15.209 v -50.9004 h -12 v -22.20703 h 14 v -2.45507 h 39.0762 v -13.43946 h -39.0762 v -2.35742 z m -275.37304,2.35742 v 15.89453 h -14 v 22.20703 h 12 v 44.5918 h 13.30859 v 6.3086 h 15.20899 v -8.17579 h -12.88672 v -42.72461 h -12 v -22.20703 h 14 v -15.89453 z m 78.57812,0 v 15.89453 h -14 v 22.20703 h 12 v 42.72461 h -13.0957 v 8.17579 h -18 v 3.21093 h -36.96484 v -3.21093 h -15.20899 v 5.26367 h 13.09571 v 11.75976 H 911.125 v -11.75976 h 10.77148 v 11.75976 h 15.20899 v -17.02343 h 18 v -50.9004 h -12 v -22.20703 h 14 v -15.89453 z m 66.93942,0 v 11.57422 h -13.3066 v 4.32031 h -14 v 22.20703 h 12 v 10.0586 h 13.3066 v 11.57226 h 65.2715 v 29.26954 h 15.209 v -31.32227 h -13.0976 v -11.57227 h -65.0586 v -8.00586 h -12.00004 v -22.20703 h 14.00004 v -2.45507 h 62.9472 v 2.45507 h -14 v 20.69141 h 15.209 v -20.69141 h 14 v -4.32031 h -13.0976 v -11.57422 z m -279.72652,46.10742 v 36.58594 h 13.30664 v 6.3086 H 757.625 v -8.17579 h -12.88477 v -34.71875 z m 264.41992,23.14649 v 19.74805 h 15.6309 v -19.74805 z m -269.11328,19.74805 v 5.26367 h 13.09765 v 11.75976 h 41.40039 v -11.75976 h 12.88477 v -5.26367 H 776.5918 v 3.21093 H 739.625 v -3.21093 z m 251.11328,0 v 5.26367 h 13.30664 v 11.75976 h 67.38286 v -11.75976 h 13.0976 v -5.26367 h -15.209 v 3.21093 h -62.94724 v -3.21093 z m 143.1621,0 v 5.26367 h 12.8848 v 11.75976 h 41.4004 v -13.8125 h -39.0762 v -3.21093 z m -463.79296,98.2246 v 16.875 h 6 v 42.21876 h -18 v 35.6582 h 12 v 35.16797 h -10 v 22.21289 h 15.63086 v -22.21289 h 10 v -35.16797 h 10.77343 v 11.08789 h 12.88477 v 24.08008 h -10 v 10.45312 h 15.41992 v -10.45312 h 10 v -24.08008 h 13.09766 v -11.08789 h 10.77148 v 35.16797 h -10 v 22.21289 h 15.20899 v -22.21289 h 10 v -35.16797 h -12 v -35.6582 h 18 v -42.21876 h -6 v -16.875 h -15.20899 v 16.875 h 6 v 6.08399 h -13.0957 v 34.7207 h -13.0957 v 1.41407 h -10.77344 v -1.41407 h -13.0957 v -34.7207 H 676.5293 v -6.08399 h -6 v -16.875 z m 391.70896,11.38672 v 5.48828 h 6 v 19.71094 h 15.4199 v -19.71094 h -6 v -5.48828 z m 53.1309,0 v 5.48828 h 6 v 42.21876 h 15.6308 v -42.21876 h -6 v -5.48828 z m -280.22463,34.71875 v 11.57422 h -13.09765 v 1.41407 h -18 v 9.97265 h -13.30664 v 25.68555 h 12 v 34.04687 h 13.30664 v 1.1211 h -10 v 10.45312 h 13.09765 v 11.75977 h 41.40039 v -11.75977 h 12.88477 v -10.45312 h 10 v -1.1211 h 13.09765 v -34.04687 h -12 v -25.68555 h -13.09765 v -9.97265 h 18 v -1.41407 h -12.88477 v -11.57422 z m 105.80469,0 v 12.98829 h -18 v 35.6582 h 12 v 35.16797 h -10 v 22.21289 h 15.63086 v -22.21289 h 10 v -35.16797 h -12 v -23.63281 h 12.88672 v -11.57422 h 36.96484 v 11.57422 h 13.0957 v 23.63281 h 12 v 35.16797 h -10 v 22.21289 h 15.20902 v -22.21289 h 10 v -35.16797 h -12 v -25.68555 h -13.09573 v -9.97265 h 18.00003 v -1.41407 H 993.125 v -11.57422 h -41.40234 v 11.57422 h -10.77344 v -11.57422 z m 127.28904,0 v 12.98829 h 15.4199 v -12.98829 z m 131.709,0 v 11.57422 h -13.0957 v 1.41407 h -18 v 9.97265 h -26.1934 v 11.57227 h -12.8847 v 11.57422 h -10.7735 v -33.11914 h -15.6308 v 35.6582 h 12 v 35.16797 h -10 v 22.21289 h 15.6308 v -22.21289 h 10 v -24.08008 h 10.7735 v 11.38476 h 12.8847 v 11.57422 h 26.1934 v 1.1211 h -10 v 10.45312 h 13.0957 v 11.75977 h 15.209 v -13.81446 h -13.0957 v -8.39843 h 10 v -2.98828 h -12.8848 V 560.3125 h -26.1933 v -11.57422 h -13.0957 v -9.0332 h -12 v -0.48633 h 13.0957 v -11.57422 h 26.1933 v -11.57226 h 12.8848 v -11.57422 h 13.0957 v -0.45117 h 18 v -12.98829 z m 66.9395,0 v 11.57422 h -13.3067 v 1.41407 h -18 v 23.59765 h 15.6309 v -23.14648 h 49.8496 v 32.66797 h -52.1738 v 2.53906 h 12 v 9.0332 h -13.3067 v 26.13477 h -10 v 10.45312 h 13.3067 v 11.75977 h 41.4023 v -11.75977 h 23.8691 v 11.75977 h 15.209 v -13.81446 h -13.0976 v -8.39843 h 10 v -35.16797 h -12 v -35.6582 h 18 v -1.41407 h -12.8848 v -11.57422 z m -566.74418,12.98829 h 10.77344 v 35.6582 h -10.77344 z m 350.09568,0 v 35.6582 h 12 v 35.16797 h -10 v 22.21289 h 15.4199 v -22.21289 h 10 v -35.16797 h -12 v -35.6582 z m -376.0781,0.45117 h 10.77343 v 35.20703 H 658.5293 Z m 52.17578,0 h 10.77148 v 35.20703 h -10.77148 z m 92.91992,0 h 36.9668 v 11.57422 h 13.0957 v 23.63281 h 12 v 32.17969 h -13.0957 v 2.98828 h -10 v 8.39843 H 805.625 v -8.39843 h 10 v -2.98828 h -12.88477 v -32.17969 h -12 V 516.07227 H 803.625 Z m -107.11328,35.20703 h 10.77344 v 9.0332 h -10.77344 z m 551.06838,11.08789 h 49.8496 v 21.0918 h -13.0957 v 2.98828 h -10 v 8.39843 h -36.7539 v -8.39843 h 10 z"
         sodipodi:nodetypes="ccccccccccccccccccccccccccccccccccccccccccccccccccccccccccccccccccccccccccccccccccccccccccccccccccccccccccccccccccccccccccccccccccccccccccccccccccccccccccccccccccccccccccccccccccccccccccccccccccccccccccccccccccccccccccccccccccccccccccccccccccccccccccccccccccccccccccccccccccccccccccccccccccccccccccccccccccccccccccccccccccccccccccccccccccccccccccccccccccccccccccccccccccccccccccccccccccccccccccccccccccccccccccccccccccccccccccccccccccccccccccccccccccccccccccccccccccccccccccccccccccccccccc" />
      <path
         id="path43787"
         style="font-size:173.333px;line-height:1.25;font-family:DotGothic16;-inkscape-font-specification:DotGothic16;text-align:center;letter-spacing:21.8227px;text-anchor:middle;white-space:pre;fill:#ffffff;stroke-width:1.1456"
         d="m 801.6875,211.62109 v 43.74805 h 15.20898 v -43.74805 z m 329.0039,11.38672 v 32.36133 h 15.209 v -32.36133 z m -313.0039,32.36133 v 18.25195 h -14 v 22.20703 h 12 v 42.72461 h -13.0957 v 8.17579 h 15.20703 v -6.3086 h 13.09765 v -44.5918 h -12 v -22.20703 h 14 v -18.25195 z m 329.0039,0 v 2.35742 h -26.4043 v 13.43946 h 26.4043 v 2.45507 h -14 v 22.20703 h 12 v 50.9004 h 15.209 v -50.9004 h -12 v -22.20703 h 14 v -2.45507 h 39.0762 v -13.43946 h -39.0762 v -2.35742 z m -275.37304,2.35742 v 15.89453 h -14 v 22.20703 h 12 v 44.5918 h 13.30859 v 6.3086 h 15.20899 v -8.17579 h -12.88672 v -42.72461 h -12 v -22.20703 h 14 v -15.89453 z m 78.57812,0 v 15.89453 h -14 v 22.20703 h 12 v 42.72461 h -13.0957 v 8.17579 h -18 v 3.21093 h -36.96484 v -3.21093 h -15.20899 v 5.26367 h 13.09571 v 11.75976 H 919.125 v -11.75976 h 10.77148 v 11.75976 h 15.20899 v -17.02343 h 18 v -50.9004 h -12 v -22.20703 h 14 v -15.89453 z m 66.93942,0 v 11.57422 h -13.3066 v 4.32031 h -14 v 22.20703 h 12 v 10.0586 h 13.3066 v 11.57226 h 65.2715 v 29.26954 h 15.209 v -31.32227 h -13.0976 v -11.57227 h -65.0586 v -8.00586 h -12 v -22.20703 h 14 v -2.45507 h 62.9472 v 2.45507 h -14 v 20.69141 h 15.209 v -20.69141 h 14 v -4.32031 h -13.0976 v -11.57422 z m -279.72652,46.10742 v 36.58594 h 13.30664 v 6.3086 H 765.625 v -8.17579 h -12.88477 v -34.71875 z m 264.41992,23.14649 v 19.74805 h 15.6309 v -19.74805 z m -269.11328,19.74805 v 5.26367 h 13.09765 v 11.75976 h 41.40039 v -11.75976 h 12.88477 v -5.26367 H 784.5918 v 3.21093 H 747.625 v -3.21093 z m 251.11328,0 v 5.26367 h 13.30664 v 11.75976 h 67.38286 v -11.75976 h 13.0976 v -5.26367 h -15.209 v 3.21093 h -62.94724 v -3.21093 z m 143.1621,0 v 5.26367 h 12.8848 v 11.75976 h 41.4004 v -13.8125 h -39.0762 v -3.21093 z m -463.79296,98.2246 v 16.875 h 6 v 42.21876 h -18 v 35.6582 h 12 v 35.16797 h -10 v 22.21289 h 15.63086 v -22.21289 h 10 v -35.16797 h 10.77343 v 11.08789 h 12.88477 v 24.08008 h -10 v 10.45312 h 15.41992 v -10.45312 h 10 v -24.08008 h 13.09766 v -11.08789 h 10.77148 v 35.16797 h -10 v 22.21289 h 15.20899 v -22.21289 h 10 v -35.16797 h -12 v -35.6582 h 18 v -42.21876 h -6 v -16.875 h -15.20899 v 16.875 h 6 v 6.08399 h -13.0957 v 34.7207 h -13.0957 v 1.41407 h -10.77344 v -1.41407 h -13.0957 v -34.7207 H 684.5293 v -6.08399 h -6 v -16.875 z m 391.70896,11.38672 v 5.48828 h 6 v 19.71094 h 15.4199 v -19.71094 h -6 v -5.48828 z m 53.1309,0 v 5.48828 h 6 v 42.21876 h 15.6308 v -42.21876 h -6 v -5.48828 z m -280.22463,34.71875 v 11.57422 h -13.09765 v 1.41407 h -18 v 9.97265 h -13.30664 v 25.68555 h 12 v 34.04687 h 13.30664 v 1.1211 h -10 v 10.45312 h 13.09765 v 11.75977 h 41.40039 v -11.75977 h 12.88477 v -10.45312 h 10 v -1.1211 h 13.09765 v -34.04687 h -12 v -25.68555 h -13.09765 v -9.97265 h 18 v -1.41407 h -12.88477 v -11.57422 z m 105.80469,0 v 12.98829 h -18 v 35.6582 h 12 v 35.16797 h -10 v 22.21289 h 15.63086 v -22.21289 h 10 v -35.16797 h -12 v -23.63281 h 12.88672 v -11.57422 h 36.96484 v 11.57422 h 13.0957 v 23.63281 h 12.00002 v 35.16797 h -10.00002 v 22.21289 h 15.20902 v -22.21289 h 10 v -35.16797 h -12 v -25.68555 h -13.09573 v -9.97265 h 18.00003 v -1.41407 h -12.8848 v -11.57422 h -41.40234 v 11.57422 h -10.77344 v -11.57422 z m 127.28904,0 v 12.98829 h 15.4199 v -12.98829 z m 131.709,0 v 11.57422 h -13.0957 v 1.41407 h -18 v 9.97265 h -26.1934 v 11.57227 h -12.8847 v 11.57422 h -10.7735 v -33.11914 h -15.6308 v 35.6582 h 12 v 35.16797 h -10 v 22.21289 h 15.6308 v -22.21289 h 10 v -24.08008 h 10.7735 v 11.38476 h 12.8847 v 11.57422 h 26.1934 v 1.1211 h -10 v 10.45312 h 13.0957 v 11.75977 h 15.209 v -13.81446 h -13.0957 v -8.39843 h 10 v -2.98828 h -12.8848 V 560.3125 h -26.1933 v -11.57422 h -13.0957 v -9.0332 h -12 v -0.48633 h 13.0957 v -11.57422 h 26.1933 v -11.57226 h 12.8848 v -11.57422 h 13.0957 v -0.45117 h 18 v -12.98829 z m 66.9395,0 v 11.57422 h -13.3067 v 1.41407 h -18 v 23.59765 h 15.6309 v -23.14648 h 49.8496 v 32.66797 h -52.1738 v 2.53906 h 12 v 9.0332 h -13.3067 v 26.13477 h -10 v 10.45312 h 13.3067 v 11.75977 h 41.4023 v -11.75977 h 23.8691 v 11.75977 h 15.209 v -13.81446 h -13.0976 v -8.39843 h 10 v -35.16797 h -12 v -35.6582 h 18 v -1.41407 h -12.8848 v -11.57422 z m -566.74418,12.98829 h 10.77344 v 35.6582 h -10.77344 z m 350.09568,0 v 35.6582 h 12 v 35.16797 h -10 v 22.21289 h 15.4199 v -22.21289 h 10 v -35.16797 h -12 v -35.6582 z m -376.0781,0.45117 h 10.77343 v 35.20703 H 666.5293 Z m 52.17578,0 h 10.77148 v 35.20703 h -10.77148 z m 92.91992,0 h 36.9668 v 11.57422 h 13.0957 v 23.63281 h 12 v 32.17969 h -13.0957 v 2.98828 h -10 v 8.39843 H 813.625 v -8.39843 h 10 v -2.98828 h -12.88477 v -32.17969 h -12 V 516.07227 H 811.625 Z m -107.11328,35.20703 h 10.77344 v 9.0332 h -10.77344 z m 551.06838,11.08789 h 49.8496 v 21.0918 h -13.0957 v 2.98828 h -10 v 8.39843 h -36.7539 v -8.39843 h 10 z"
         sodipodi:nodetypes="ccccccccccccccccccccccccccccccccccccccccccccccccccccccccccccccccccccccccccccccccccccccccccccccccccccccccccccccccccccccccccccccccccccccccccccccccccccccccccccccccccccccccccccccccccccccccccccccccccccccccccccccccccccccccccccccccccccccccccccccccccccccccccccccccccccccccccccccccccccccccccccccccccccccccccccccccccccccccccccccccccccccccccccccccccccccccccccccccccccccccccccccccccccccccccccccccccccccccccccccccccccccccccccccccccccccccccccccccccccccccccccccccccccccccccccccccccccccccccccccccccccccccc" />
    </g>
  </g>
</svg>
